HIERARCHY
ROOT Hips
{
	OFFSET -0.001795 -0.223333 0.028219
	CHANNELS 6 Xposition Yposition Zposition Zrotation Yrotation Xrotation 
	JOINT LeftUpLeg
	{
		OFFSET 0.069520 -0.091406 -0.006815
		CHANNELS 3 Zrotation Yrotation Xrotation
		JOINT LeftLeg
		{
			OFFSET 0.034277 -0.375199 -0.004496
			CHANNELS 3 Zrotation Yrotation Xrotation
			JOINT LeftFoot
			{
				OFFSET -0.013596 -0.397961 -0.043693
				CHANNELS 3 Zrotation Yrotation Xrotation
				JOINT LeftToe
				{
					OFFSET 0.026358 -0.055791 0.119288
					CHANNELS 3 Zrotation Yrotation Xrotation
					End Site
					{
						OFFSET 0.000000 0.000000 0.000000
					}
				}
			}
		}
	}
	JOINT RightUpLeg
	{
		OFFSET -0.067670 -0.090522 -0.004320
		CHANNELS 3 Zrotation Yrotation Xrotation
		JOINT RightLeg
		{
			OFFSET -0.038290 -0.382569 -0.008850
			CHANNELS 3 Zrotation Yrotation Xrotation
			JOINT RightFoot
			{
				OFFSET 0.015774 -0.398415 -0.042312
				CHANNELS 3 Zrotation Yrotation Xrotation
				JOINT RightToe
				{
					OFFSET -0.025372 -0.048144 0.123348
					CHANNELS 3 Zrotation Yrotation Xrotation
					End Site
					{
						OFFSET 0.000000 0.000000 0.000000
					}
				}
			}
		}
	}
	JOINT Spine
	{
		OFFSET -0.002533 0.108963 -0.026696
		CHANNELS 3 Zrotation Yrotation Xrotation
		JOINT Spine1
		{
			OFFSET 0.005487 0.135180 0.001092
			CHANNELS 3 Zrotation Yrotation Xrotation
			JOINT Spine2
			{
				OFFSET 0.001457 0.052922 0.025425
				CHANNELS 3 Zrotation Yrotation Xrotation
				JOINT Neck
				{
					OFFSET -0.002778 0.213870 -0.042857
					CHANNELS 3 Zrotation Yrotation Xrotation
					JOINT Head
					{
						OFFSET 0.005152 0.064970 0.051349
						CHANNELS 3 Zrotation Yrotation Xrotation
						End Site
						{
							OFFSET 0.000000 0.000000 0.000000
						}
					}
				}
				JOINT LeftShoulder
				{
					OFFSET 0.078845 0.121749 -0.034090
					CHANNELS 3 Zrotation Yrotation Xrotation
					JOINT LeftArm
					{
						OFFSET 0.090977 0.030469 -0.008868
						CHANNELS 3 Zrotation Yrotation Xrotation
						JOINT LeftForeArm
						{
							OFFSET 0.259612 -0.012772 -0.027456
							CHANNELS 3 Zrotation Yrotation Xrotation
							JOINT LeftHand
							{
								OFFSET 0.249234 0.008986 -0.001171
								CHANNELS 3 Zrotation Yrotation Xrotation
								End Site
								{
									OFFSET 0.000000 0.000000 0.000000
								}
							}
						}
					}
				}
				JOINT RightShoulder
				{
					OFFSET -0.081759 0.118833 -0.038615
					CHANNELS 3 Zrotation Yrotation Xrotation
					JOINT RightArm
					{
						OFFSET -0.096012 0.032551 -0.009143
						CHANNELS 3 Zrotation Yrotation Xrotation
						JOINT RightForeArm
						{
							OFFSET -0.253742 -0.013329 -0.021401
							CHANNELS 3 Zrotation Yrotation Xrotation
							JOINT RightHand
							{
								OFFSET -0.255298 0.007772 -0.005559
								CHANNELS 3 Zrotation Yrotation Xrotation
								End Site
								{
									OFFSET 0.000000 0.000000 0.000000
								}
							}
						}
					}
				}
			}
		}
	}
}
MOTION
Frames: 9
Frame Time: 0.050000
-0.431214 0.926479 1.239667 -1.953235 -1.960125 -0.604003 16.735254 0.004210 -1.341257 2.025960 -0.290097 1.193467 -9.650247 -10.622533 14.120385 0.000000 0.000000 0.000000 -16.454229 0.125958 -7.844228 1.225698 0.378980 15.287990 6.031379 2.173453 20.256743 0.000000 0.000000 0.000000 4.683857 -0.857049 10.214214 -7.156576 2.545355 -18.475308 -2.422084 6.228870 28.742807 8.333864 -2.605195 -25.071178 0.000000 0.000000 0.000000 -22.283654 -5.955168 0.642648 -39.113560 4.103909 -7.297521 8.702155 -50.511108 -2.217413 0.000000 0.000000 0.000000 32.749163 -1.958041 -1.253790 52.929316 5.724729 -5.927965 1.543753 34.242932 2.758836 0.000000 0.000000 0.000000 
-0.472847 0.922494 1.240480 -1.138398 -0.324620 -0.482260 17.751894 -0.023356 -2.396615 3.443345 -0.487140 1.653238 -11.032827 -10.875143 17.063740 0.000000 0.000000 0.000000 -15.268934 0.119536 -6.855716 1.980368 0.152952 15.610847 4.371011 2.753140 13.422340 0.000000 0.000000 0.000000 5.056608 -0.927805 10.474802 -6.864030 2.457842 -19.380856 -2.112538 7.000942 29.122630 7.745207 -1.679811 -26.968785 0.000000 0.000000 0.000000 -22.487323 -6.002361 0.082348 -38.914725 4.088023 -7.113362 9.149525 -50.753800 -2.707368 0.000000 0.000000 0.000000 31.811083 -2.765528 -0.977254 53.579584 7.306153 -5.503837 2.479038 34.236689 3.214288 0.000000 0.000000 0.000000 
-0.511385 0.922124 1.239416 -1.077661 1.810611 -0.886395 18.220426 0.000728 -4.498322 5.482198 -1.093681 5.888927 -9.689328 -9.144697 15.830953 0.000000 0.000000 0.000000 -13.033414 0.126751 -4.771180 2.973292 -0.181740 14.338462 2.129461 0.719749 8.847167 0.000000 0.000000 0.000000 6.752231 -1.230340 11.602627 -7.044141 2.549634 -19.544242 -2.480834 7.057044 28.722851 7.787072 -1.423435 -27.303115 0.000000 0.000000 0.000000 -23.108954 -5.974969 -0.507161 -38.744208 4.862915 -7.128574 10.517827 -54.692271 -3.947414 0.000000 0.000000 0.000000 30.916091 -1.980750 0.169742 53.870930 8.536828 -5.042463 1.053585 34.428205 2.898552 0.000000 0.000000 0.000000 
-0.543446 0.925523 1.238018 -0.951724 2.638555 -0.474325 18.882719 0.079312 -6.405624 5.301060 -1.346745 9.123319 -7.131626 -5.240275 15.208024 0.000000 0.000000 0.000000 -11.328808 0.158978 -5.324385 3.692019 -0.386225 14.737991 1.430306 -0.046649 7.427894 0.000000 0.000000 0.000000 7.602765 -1.365105 11.767521 -6.873344 2.499344 -19.916597 -1.856145 8.208354 28.416168 7.941380 -1.418280 -25.977613 0.000000 0.000000 0.000000 -23.791522 -6.378845 -0.962003 -39.895090 6.589581 -7.668747 11.208781 -59.717814 -5.108375 0.000000 0.000000 0.000000 29.939800 -0.883285 1.559993 51.764494 10.326732 -4.314393 0.037024 32.939699 2.435258 0.000000 0.000000 0.000000 
-0.567620 0.931616 1.237984 -0.293977 4.650456 -0.084073 17.727713 0.075775 -9.254011 3.903883 -1.397085 12.791601 -3.070301 1.648150 15.543606 0.000000 0.000000 0.000000 -10.546011 0.126291 -4.522494 4.331133 -0.604321 13.342910 0.636677 -1.621210 7.576067 0.000000 0.000000 0.000000 8.240973 -1.427999 11.367988 -7.490795 2.717551 -19.618685 -1.070140 9.323192 28.098711 6.371257 -0.116808 -25.636808 0.000000 0.000000 0.000000 -25.066929 -6.346735 -2.117412 -39.224959 8.191193 -7.638804 4.782537 -66.526451 -2.257715 0.000000 0.000000 0.000000 28.881824 -0.955793 2.378975 51.289100 12.234365 -3.654163 -1.367926 30.972681 1.980872 0.000000 0.000000 0.000000 
-0.584769 0.936388 1.239771 0.637115 6.618579 0.308834 15.733907 -0.033057 -11.990788 -0.139360 -0.759684 16.431161 3.402746 11.235358 13.798001 0.000000 0.000000 0.000000 -10.058716 0.080822 -3.440607 4.179671 -0.608776 11.679666 -0.167833 -3.213305 7.752683 0.000000 0.000000 0.000000 8.077453 -1.390330 10.939669 -7.116066 2.594092 -20.616584 -0.601323 10.482412 28.875983 7.555519 -0.469606 -25.360931 0.000000 0.000000 0.000000 -24.805538 -6.329181 -2.997253 -40.437561 10.251557 -8.360095 -7.634320 -72.233009 5.828592 0.000000 0.000000 0.000000 27.974055 -0.915878 3.260801 51.107828 13.529580 -3.322820 -2.004481 29.678656 1.801790 0.000000 0.000000 0.000000 
-0.595866 0.939909 1.242992 1.245974 9.459827 0.725423 13.569279 -0.288083 -14.841062 -3.628512 -0.163171 19.875718 6.689863 15.949435 11.266508 0.000000 0.000000 0.000000 -9.792597 -0.008219 -1.947472 4.578432 -0.740363 9.713227 -1.237661 -5.364098 8.333948 0.000000 0.000000 0.000000 8.254587 -1.360062 10.197770 -7.995916 2.860379 -20.684136 0.027230 11.375476 29.293069 8.187989 -0.520653 -24.719055 0.000000 0.000000 0.000000 -24.211412 -6.070970 -4.002008 -40.586394 10.628020 -8.329908 -25.722967 -73.689557 18.792678 0.000000 0.000000 0.000000 27.776793 -1.103624 4.046369 49.839723 14.321939 -3.245262 -2.963671 28.242413 1.491073 0.000000 0.000000 0.000000 
-0.601708 0.940898 1.246905 1.937913 11.532214 1.136437 12.060925 -0.540302 -16.827790 -5.988795 0.300568 20.931201 6.254849 15.500695 11.369931 0.000000 0.000000 0.000000 -9.482250 -0.085920 -0.302860 4.053568 -0.627390 7.432331 -2.142579 -7.071190 8.294085 0.000000 0.000000 0.000000 8.108050 -1.369101 10.147065 -8.614580 2.988814 -21.340995 0.999175 13.405766 29.719764 8.358844 0.002486 -25.011523 0.000000 0.000000 0.000000 -23.970783 -6.912023 -4.761038 -40.645624 11.771427 -8.385395 -39.363110 -73.431571 28.139821 0.000000 0.000000 0.000000 27.467967 -2.015478 4.519774 48.923198 14.489720 -3.405449 -2.342609 27.869696 1.656402 0.000000 0.000000 0.000000 
-0.603338 0.941168 1.251518 2.286180 14.457600 1.699886 11.266688 -0.840309 -19.093973 -7.214381 0.423756 21.100306 4.969275 14.255421 13.150591 0.000000 0.000000 0.000000 -9.408012 -0.196882 1.079216 4.431456 -0.723145 5.678830 -3.296437 -9.310417 8.765124 0.000000 0.000000 0.000000 8.024613 -1.316211 9.482758 -8.496038 3.009359 -20.965349 1.281394 13.765361 29.520282 8.229961 0.324691 -24.359670 0.000000 0.000000 0.000000 -23.428332 -6.860908 -5.423850 -40.864881 12.313914 -8.480626 -42.459974 -71.277716 28.755097 0.000000 0.000000 0.000000 27.086444 -2.069622 5.070576 47.555331 14.682815 -3.400655 -2.651255 27.413624 1.516671 0.000000 0.000000 0.000000 
